<svg width="615" height="509" viewBox="0 0 615 509" fill="none" xmlns="http://www.w3.org/2000/svg">
<g filter="url(#filter0_d_103_14)">
<rect x="4" width="607" height="498" rx="47" fill="#FBFBFB"/>
</g>
<g filter="url(#filter1_d_103_14)">
<rect x="72" y="32" width="471" height="289" rx="47" fill="url(#paint0_linear_103_14)" shape-rendering="crispEdges"/>
</g>
<path d="M129.239 226V208.933L165.05 177.58C167.735 175.151 170.02 172.93 171.906 170.917C173.792 168.871 175.23 166.826 176.221 164.78C177.211 162.703 177.707 160.45 177.707 158.021C177.707 155.304 177.115 152.987 175.933 151.069C174.75 149.12 173.12 147.618 171.043 146.563C168.966 145.508 166.585 144.981 163.9 144.981C161.183 144.981 158.802 145.54 156.757 146.659C154.711 147.745 153.113 149.327 151.963 151.405C150.844 153.482 150.285 156.007 150.285 158.979H127.801C127.801 152.3 129.303 146.531 132.307 141.673C135.311 136.815 139.53 133.076 144.963 130.455C150.429 127.802 156.773 126.476 163.996 126.476C171.442 126.476 177.914 127.722 183.412 130.215C188.909 132.708 193.159 136.192 196.164 140.666C199.2 145.109 200.718 150.27 200.718 156.151C200.718 159.89 199.967 163.598 198.465 167.273C196.963 170.949 194.262 175.007 190.363 179.45C186.496 183.892 180.999 189.214 173.871 195.414L162.126 206.249V206.872H201.917V226H129.239ZM255.933 228.397C247.368 228.397 239.985 226.368 233.785 222.309C227.585 218.218 222.807 212.353 219.451 204.714C216.095 197.044 214.433 187.824 214.465 177.053C214.497 166.282 216.175 157.142 219.499 149.631C222.854 142.088 227.617 136.352 233.785 132.42C239.985 128.457 247.368 126.476 255.933 126.476C264.499 126.476 271.881 128.457 278.082 132.42C284.314 136.352 289.108 142.088 292.464 149.631C295.82 157.174 297.482 166.314 297.45 177.053C297.45 187.855 295.772 197.092 292.416 204.762C289.06 212.433 284.282 218.298 278.082 222.357C271.913 226.384 264.531 228.397 255.933 228.397ZM255.933 208.981C261.047 208.981 265.186 206.376 268.35 201.167C271.514 195.925 273.08 187.887 273.048 177.053C273.048 169.958 272.329 164.109 270.891 159.507C269.453 154.873 267.455 151.421 264.898 149.152C262.341 146.882 259.353 145.748 255.933 145.748C250.852 145.748 246.745 148.321 243.613 153.466C240.481 158.58 238.899 166.442 238.867 177.053C238.835 184.244 239.522 190.205 240.928 194.935C242.366 199.665 244.38 203.196 246.968 205.529C249.557 207.831 252.546 208.981 255.933 208.981ZM351.646 228.397C343.081 228.397 335.698 226.368 329.498 222.309C323.297 218.218 318.519 212.353 315.164 204.714C311.808 197.044 310.146 187.824 310.178 177.053C310.21 166.282 311.888 157.142 315.212 149.631C318.567 142.088 323.329 136.352 329.498 132.42C335.698 128.457 343.081 126.476 351.646 126.476C360.212 126.476 367.594 128.457 373.795 132.42C380.027 136.352 384.821 142.088 388.177 149.631C391.533 157.174 393.195 166.314 393.163 177.053C393.163 187.855 391.485 197.092 388.129 204.762C384.773 212.433 379.995 218.298 373.795 222.357C367.626 226.384 360.244 228.397 351.646 228.397ZM351.646 208.981C356.76 208.981 360.899 206.376 364.063 201.167C367.227 195.925 368.793 187.887 368.761 177.053C368.761 169.958 368.042 164.109 366.604 159.507C365.165 154.873 363.168 151.421 360.611 149.152C358.054 146.882 355.066 145.748 351.646 145.748C346.565 145.748 342.458 148.321 339.326 153.466C336.193 158.58 334.611 166.442 334.579 177.053C334.547 184.244 335.235 190.205 336.641 194.935C338.079 199.665 340.093 203.196 342.681 205.529C345.27 207.831 348.258 208.981 351.646 208.981ZM436.189 211.81V142.392H455.509V211.81H436.189ZM411.116 186.785V167.417H480.534V186.785H411.116Z" fill="white"/>
<path d="M135.205 390.455H142.205V423.455C142.205 426.439 141.614 428.992 140.432 431.114C139.265 433.235 137.621 434.856 135.5 435.977C133.379 437.083 130.894 437.636 128.045 437.636C125.424 437.636 123.068 437.159 120.977 436.205C118.902 435.25 117.258 433.864 116.045 432.045C114.848 430.212 114.25 427.985 114.25 425.364H121.227C121.227 426.652 121.523 427.765 122.114 428.705C122.72 429.644 123.545 430.379 124.591 430.909C125.652 431.424 126.864 431.682 128.227 431.682C129.712 431.682 130.97 431.371 132 430.75C133.045 430.114 133.841 429.182 134.386 427.955C134.932 426.727 135.205 425.227 135.205 423.455V390.455ZM173.994 422.523V402.091H180.812V437H174.131V430.955H173.767C172.964 432.818 171.676 434.371 169.903 435.614C168.146 436.841 165.956 437.455 163.335 437.455C161.093 437.455 159.108 436.962 157.381 435.977C155.669 434.977 154.32 433.5 153.335 431.545C152.366 429.591 151.881 427.174 151.881 424.295V402.091H158.676V423.477C158.676 425.856 159.335 427.75 160.653 429.159C161.972 430.568 163.684 431.273 165.79 431.273C167.063 431.273 168.328 430.955 169.585 430.318C170.858 429.682 171.911 428.72 172.744 427.432C173.593 426.144 174.009 424.508 173.994 422.523ZM189.943 437V402.091H196.466V407.773H196.898C197.625 405.848 198.814 404.348 200.466 403.273C202.117 402.182 204.095 401.636 206.398 401.636C208.731 401.636 210.686 402.182 212.261 403.273C213.852 404.364 215.027 405.864 215.784 407.773H216.148C216.981 405.909 218.307 404.424 220.125 403.318C221.943 402.197 224.11 401.636 226.625 401.636C229.792 401.636 232.375 402.629 234.375 404.614C236.39 406.598 237.398 409.591 237.398 413.591V437H230.602V414.227C230.602 411.864 229.958 410.152 228.67 409.091C227.383 408.03 225.845 407.5 224.057 407.5C221.845 407.5 220.125 408.182 218.898 409.545C217.67 410.894 217.057 412.629 217.057 414.75V437H210.284V413.795C210.284 411.902 209.693 410.379 208.511 409.227C207.33 408.076 205.792 407.5 203.898 407.5C202.61 407.5 201.42 407.841 200.33 408.523C199.254 409.189 198.383 410.121 197.716 411.318C197.064 412.515 196.739 413.902 196.739 415.477V437H189.943ZM253.301 390.455V437H246.506V390.455H253.301ZM272.602 437.773C270.39 437.773 268.39 437.364 266.602 436.545C264.814 435.712 263.398 434.508 262.352 432.932C261.322 431.356 260.807 429.424 260.807 427.136C260.807 425.167 261.186 423.545 261.943 422.273C262.701 421 263.723 419.992 265.011 419.25C266.299 418.508 267.739 417.947 269.33 417.568C270.92 417.189 272.542 416.902 274.193 416.705C276.284 416.462 277.981 416.265 279.284 416.114C280.587 415.947 281.534 415.682 282.125 415.318C282.716 414.955 283.011 414.364 283.011 413.545V413.386C283.011 411.402 282.451 409.864 281.33 408.773C280.223 407.682 278.572 407.136 276.375 407.136C274.087 407.136 272.284 407.644 270.966 408.659C269.663 409.659 268.761 410.773 268.261 412L261.875 410.545C262.633 408.424 263.739 406.712 265.193 405.409C266.663 404.091 268.352 403.136 270.261 402.545C272.17 401.939 274.178 401.636 276.284 401.636C277.678 401.636 279.155 401.803 280.716 402.136C282.292 402.455 283.761 403.045 285.125 403.909C286.504 404.773 287.633 406.008 288.511 407.614C289.39 409.205 289.83 411.273 289.83 413.818V437H283.193V432.227H282.92C282.481 433.106 281.822 433.97 280.943 434.818C280.064 435.667 278.936 436.371 277.557 436.932C276.178 437.492 274.527 437.773 272.602 437.773ZM274.08 432.318C275.958 432.318 277.564 431.947 278.898 431.205C280.246 430.462 281.269 429.492 281.966 428.295C282.678 427.083 283.034 425.788 283.034 424.409V419.909C282.792 420.152 282.322 420.379 281.625 420.591C280.943 420.788 280.163 420.962 279.284 421.114C278.405 421.25 277.549 421.379 276.716 421.5C275.883 421.606 275.186 421.697 274.625 421.773C273.307 421.939 272.102 422.22 271.011 422.614C269.936 423.008 269.072 423.576 268.42 424.318C267.784 425.045 267.466 426.015 267.466 427.227C267.466 428.909 268.087 430.182 269.33 431.045C270.572 431.894 272.155 432.318 274.08 432.318ZM305.676 416.273V437H298.881V390.455H305.585V407.773H306.017C306.835 405.894 308.085 404.402 309.767 403.295C311.449 402.189 313.646 401.636 316.358 401.636C318.752 401.636 320.843 402.129 322.631 403.114C324.434 404.098 325.828 405.568 326.812 407.523C327.812 409.462 328.312 411.886 328.312 414.795V437H321.517V415.614C321.517 413.053 320.858 411.068 319.54 409.659C318.222 408.235 316.388 407.523 314.04 407.523C312.434 407.523 310.994 407.864 309.722 408.545C308.464 409.227 307.472 410.227 306.744 411.545C306.032 412.848 305.676 414.424 305.676 416.273ZM354.864 437V390.455H371.909C375.212 390.455 377.947 391 380.114 392.091C382.28 393.167 383.902 394.629 384.977 396.477C386.053 398.311 386.591 400.379 386.591 402.682C386.591 404.621 386.235 406.258 385.523 407.591C384.811 408.909 383.856 409.97 382.659 410.773C381.477 411.561 380.174 412.136 378.75 412.5V412.955C380.295 413.03 381.803 413.53 383.273 414.455C384.758 415.364 385.985 416.659 386.955 418.341C387.924 420.023 388.409 422.068 388.409 424.477C388.409 426.856 387.848 428.992 386.727 430.886C385.621 432.765 383.909 434.258 381.591 435.364C379.273 436.455 376.311 437 372.705 437H354.864ZM361.886 430.977H372.023C375.386 430.977 377.795 430.326 379.25 429.023C380.705 427.72 381.432 426.091 381.432 424.136C381.432 422.667 381.061 421.318 380.318 420.091C379.576 418.864 378.515 417.886 377.136 417.159C375.773 416.432 374.152 416.068 372.273 416.068H361.886V430.977ZM361.886 410.591H371.295C372.871 410.591 374.288 410.288 375.545 409.682C376.818 409.076 377.826 408.227 378.568 407.136C379.326 406.03 379.705 404.727 379.705 403.227C379.705 401.303 379.03 399.689 377.682 398.386C376.333 397.083 374.265 396.432 371.477 396.432H361.886V410.591ZM418.307 422.523V402.091H425.125V437H418.443V430.955H418.08C417.277 432.818 415.989 434.371 414.216 435.614C412.458 436.841 410.269 437.455 407.648 437.455C405.405 437.455 403.42 436.962 401.693 435.977C399.981 434.977 398.633 433.5 397.648 431.545C396.678 429.591 396.193 427.174 396.193 424.295V402.091H402.989V423.477C402.989 425.856 403.648 427.75 404.966 429.159C406.284 430.568 407.996 431.273 410.102 431.273C411.375 431.273 412.64 430.955 413.898 430.318C415.17 429.682 416.223 428.72 417.057 427.432C417.905 426.144 418.322 424.508 418.307 422.523ZM440.506 425.159L440.46 416.864H441.642L455.551 402.091H463.688L447.824 418.909H446.756L440.506 425.159ZM434.256 437V390.455H441.051V437H434.256ZM456.301 437L443.801 420.409L448.483 415.659L464.642 437H456.301ZM491.994 422.523V402.091H498.812V437H492.131V430.955H491.767C490.964 432.818 489.676 434.371 487.903 435.614C486.146 436.841 483.956 437.455 481.335 437.455C479.093 437.455 477.108 436.962 475.381 435.977C473.669 434.977 472.32 433.5 471.335 431.545C470.366 429.591 469.881 427.174 469.881 424.295V402.091H476.676V423.477C476.676 425.856 477.335 427.75 478.653 429.159C479.972 430.568 481.684 431.273 483.79 431.273C485.063 431.273 486.328 430.955 487.585 430.318C488.858 429.682 489.911 428.72 490.744 427.432C491.593 426.144 492.009 424.508 491.994 422.523Z" fill="black"/>
<defs>
<filter id="filter0_d_103_14" x="0" y="0" width="615" height="509" filterUnits="userSpaceOnUse" color-interpolation-filters="sRGB">
<feFlood flood-opacity="0" result="BackgroundImageFix"/>
<feColorMatrix in="SourceAlpha" type="matrix" values="0 0 0 0 0 0 0 0 0 0 0 0 0 0 0 0 0 0 127 0" result="hardAlpha"/>
<feOffset dy="7"/>
<feGaussianBlur stdDeviation="2"/>
<feComposite in2="hardAlpha" operator="out"/>
<feColorMatrix type="matrix" values="0 0 0 0 0 0 0 0 0 0 0 0 0 0 0 0 0 0 0.25 0"/>
<feBlend mode="normal" in2="BackgroundImageFix" result="effect1_dropShadow_103_14"/>
<feBlend mode="normal" in="SourceGraphic" in2="effect1_dropShadow_103_14" result="shape"/>
</filter>
<filter id="filter1_d_103_14" x="68" y="32" width="479" height="297" filterUnits="userSpaceOnUse" color-interpolation-filters="sRGB">
<feFlood flood-opacity="0" result="BackgroundImageFix"/>
<feColorMatrix in="SourceAlpha" type="matrix" values="0 0 0 0 0 0 0 0 0 0 0 0 0 0 0 0 0 0 127 0" result="hardAlpha"/>
<feOffset dy="4"/>
<feGaussianBlur stdDeviation="2"/>
<feComposite in2="hardAlpha" operator="out"/>
<feColorMatrix type="matrix" values="0 0 0 0 0 0 0 0 0 0 0 0 0 0 0 0 0 0 0.25 0"/>
<feBlend mode="normal" in2="BackgroundImageFix" result="effect1_dropShadow_103_14"/>
<feBlend mode="normal" in="SourceGraphic" in2="effect1_dropShadow_103_14" result="shape"/>
</filter>
<linearGradient id="paint0_linear_103_14" x1="308" y1="32" x2="308" y2="321" gradientUnits="userSpaceOnUse">
<stop stop-color="#B31312"/>
<stop offset="1" stop-color="#B31312" stop-opacity="0.36"/>
</linearGradient>
</defs>
</svg>
